<mxfile host="app.diagrams.net" modified="2020-10-01T11:44:25.446Z" agent="5.0 (Macintosh; Intel Mac OS X 10_15_7) AppleWebKit/537.36 (KHTML, like Gecko) Chrome/85.0.4183.121 Safari/537.36" etag="qyNlpqvk_OsNeTVk0JeR" version="13.7.7" type="github">
  <diagram id="R2lEEEUBdFMjLlhIrx00" name="Page-1">
    <mxGraphModel dx="1796" dy="1714" grid="1" gridSize="10" guides="1" tooltips="1" connect="1" arrows="0" fold="1" page="1" pageScale="1" pageWidth="850" pageHeight="1100" background="#F4F1DE" math="0" shadow="0" extFonts="Permanent Marker^https://fonts.googleapis.com/css?family=Permanent+Marker">
      <root>
        <mxCell id="0" />
        <mxCell id="1" parent="0" />
        <mxCell id="QT8byqksIuODXXpdPn-B-1" value="&lt;font style=&quot;font-size: 18px&quot;&gt;Movie&lt;/font&gt;" style="rounded=0;whiteSpace=wrap;html=1;fillColor=#F2CC8F;strokeColor=#E07A5F;fontColor=#393C56;" parent="1" vertex="1">
          <mxGeometry x="380" y="210" width="105" height="40" as="geometry" />
        </mxCell>
        <mxCell id="QT8byqksIuODXXpdPn-B-2" value="&lt;font style=&quot;font-size: 18px&quot;&gt;Release Date&lt;/font&gt;" style="rounded=0;whiteSpace=wrap;html=1;fillColor=#F2CC8F;strokeColor=#E07A5F;fontColor=#393C56;" parent="1" vertex="1">
          <mxGeometry x="65" y="70" width="130" height="40" as="geometry" />
        </mxCell>
        <mxCell id="sR3rpR7EwdKjjfOCHWL--3" value="" style="edgeStyle=none;orthogonalLoop=1;jettySize=auto;html=1;endArrow=none;fillColor=#a0522d;fontSize=15;fontColor=#393C56;strokeColor=#E07A5F;" edge="1" parent="1" source="QT8byqksIuODXXpdPn-B-3" target="sR3rpR7EwdKjjfOCHWL--2">
          <mxGeometry relative="1" as="geometry" />
        </mxCell>
        <mxCell id="QT8byqksIuODXXpdPn-B-3" value="&lt;font style=&quot;font-size: 18px&quot;&gt;Series&lt;/font&gt;" style="rounded=0;whiteSpace=wrap;html=1;fontSize=18;fillColor=#F2CC8F;strokeColor=#E07A5F;fontColor=#393C56;" parent="1" vertex="1">
          <mxGeometry x="80" y="250" width="110" height="40" as="geometry" />
        </mxCell>
        <mxCell id="QT8byqksIuODXXpdPn-B-4" value="&lt;font style=&quot;font-size: 18px&quot;&gt;Languages&lt;/font&gt;" style="rounded=0;whiteSpace=wrap;html=1;fillColor=#F2CC8F;strokeColor=#E07A5F;fontColor=#393C56;" parent="1" vertex="1">
          <mxGeometry x="110" y="390" width="120" height="50" as="geometry" />
        </mxCell>
        <mxCell id="QT8byqksIuODXXpdPn-B-5" value="&lt;font style=&quot;font-size: 18px&quot;&gt;Companies&lt;/font&gt;" style="rounded=0;whiteSpace=wrap;html=1;sketch=0;strokeColor=#E07A5F;fillColor=#F2CC8F;fontColor=#393C56;" parent="1" vertex="1">
          <mxGeometry x="550" y="410" width="110" height="50" as="geometry" />
        </mxCell>
        <mxCell id="QT8byqksIuODXXpdPn-B-6" value="&lt;font style=&quot;font-size: 18px&quot;&gt;Countries&lt;/font&gt;" style="rounded=0;whiteSpace=wrap;html=1;sketch=0;strokeColor=#E07A5F;fillColor=#F2CC8F;fontColor=#393C56;" parent="1" vertex="1">
          <mxGeometry x="680" y="210" width="120" height="50" as="geometry" />
        </mxCell>
        <mxCell id="QT8byqksIuODXXpdPn-B-7" value="&lt;u&gt;&lt;font style=&quot;font-size: 16px&quot;&gt;Name&lt;/font&gt;&lt;/u&gt;" style="ellipse;whiteSpace=wrap;html=1;rounded=0;fontColor=#393C56;strokeColor=#E07A5F;fillColor=#F2CC8F;sketch=0;" parent="1" vertex="1">
          <mxGeometry x="690" y="320" width="110" height="50" as="geometry" />
        </mxCell>
        <mxCell id="QT8byqksIuODXXpdPn-B-9" value="&lt;font style=&quot;font-size: 15px&quot;&gt;&lt;u&gt;Name&lt;/u&gt;&lt;/font&gt;" style="ellipse;whiteSpace=wrap;html=1;rounded=0;fontColor=#393C56;strokeColor=#E07A5F;fillColor=#F2CC8F;sketch=0;" parent="1" vertex="1">
          <mxGeometry x="640" y="500" width="112.5" height="42" as="geometry" />
        </mxCell>
        <mxCell id="QT8byqksIuODXXpdPn-B-11" value="Dubbed" style="ellipse;whiteSpace=wrap;html=1;rounded=0;fontColor=#393C56;strokeColor=#E07A5F;fillColor=#F2CC8F;fontSize=15;" parent="1" vertex="1">
          <mxGeometry x="10" y="480" width="80" height="40" as="geometry" />
        </mxCell>
        <mxCell id="sR3rpR7EwdKjjfOCHWL--2" value="&lt;font style=&quot;font-size: 15px&quot;&gt;&lt;u&gt;Name&lt;/u&gt;&lt;/font&gt;" style="ellipse;whiteSpace=wrap;html=1;rounded=0;fontSize=18;fontColor=#393C56;strokeColor=#E07A5F;fillColor=#F2CC8F;" vertex="1" parent="1">
          <mxGeometry x="-90" y="300" width="100" height="50" as="geometry" />
        </mxCell>
        <mxCell id="sR3rpR7EwdKjjfOCHWL--5" value="Date" style="ellipse;whiteSpace=wrap;html=1;rounded=0;sketch=0;strokeColor=#E07A5F;fillColor=#F2CC8F;fontSize=15;fontColor=#393C56;" vertex="1" parent="1">
          <mxGeometry x="-20" y="-30" width="80" height="50" as="geometry" />
        </mxCell>
        <mxCell id="sR3rpR7EwdKjjfOCHWL--6" value="Month" style="ellipse;whiteSpace=wrap;html=1;rounded=0;sketch=0;strokeColor=#E07A5F;fillColor=#F2CC8F;fontSize=15;fontColor=#393C56;" vertex="1" parent="1">
          <mxGeometry x="95" y="-30" width="80" height="50" as="geometry" />
        </mxCell>
        <mxCell id="sR3rpR7EwdKjjfOCHWL--7" value="Year" style="ellipse;whiteSpace=wrap;html=1;rounded=0;sketch=0;strokeColor=#E07A5F;fillColor=#F2CC8F;fontSize=15;fontColor=#393C56;" vertex="1" parent="1">
          <mxGeometry x="220" y="-30" width="80" height="50" as="geometry" />
        </mxCell>
        <mxCell id="sR3rpR7EwdKjjfOCHWL--8" value="" style="endArrow=none;html=1;strokeColor=#E07A5F;fillColor=#a0522d;fontSize=15;fontColor=#393C56;exitX=0.192;exitY=-0.025;exitDx=0;exitDy=0;exitPerimeter=0;" edge="1" parent="1" source="QT8byqksIuODXXpdPn-B-2" target="sR3rpR7EwdKjjfOCHWL--5">
          <mxGeometry width="50" height="50" relative="1" as="geometry">
            <mxPoint x="80" y="110" as="sourcePoint" />
            <mxPoint x="130" y="60" as="targetPoint" />
          </mxGeometry>
        </mxCell>
        <mxCell id="sR3rpR7EwdKjjfOCHWL--9" value="" style="endArrow=none;html=1;strokeColor=#E07A5F;fillColor=#a0522d;fontSize=15;fontColor=#393C56;exitX=0.5;exitY=0;exitDx=0;exitDy=0;entryX=0.5;entryY=1;entryDx=0;entryDy=0;" edge="1" parent="1" source="QT8byqksIuODXXpdPn-B-2" target="sR3rpR7EwdKjjfOCHWL--6">
          <mxGeometry width="50" height="50" relative="1" as="geometry">
            <mxPoint x="120" y="110" as="sourcePoint" />
            <mxPoint x="170" y="60" as="targetPoint" />
          </mxGeometry>
        </mxCell>
        <mxCell id="sR3rpR7EwdKjjfOCHWL--10" value="" style="endArrow=none;html=1;strokeColor=#E07A5F;fillColor=#a0522d;fontSize=15;fontColor=#393C56;entryX=0;entryY=1;entryDx=0;entryDy=0;exitX=0.931;exitY=-0.025;exitDx=0;exitDy=0;exitPerimeter=0;" edge="1" parent="1" source="QT8byqksIuODXXpdPn-B-2" target="sR3rpR7EwdKjjfOCHWL--7">
          <mxGeometry width="50" height="50" relative="1" as="geometry">
            <mxPoint x="200" y="110" as="sourcePoint" />
            <mxPoint x="250" y="60" as="targetPoint" />
          </mxGeometry>
        </mxCell>
        <mxCell id="sR3rpR7EwdKjjfOCHWL--12" value="&lt;u&gt;Name&lt;/u&gt;" style="ellipse;whiteSpace=wrap;html=1;rounded=0;sketch=0;strokeColor=#E07A5F;fillColor=#F2CC8F;fontSize=15;fontColor=#393C56;" vertex="1" parent="1">
          <mxGeometry x="320" y="140" width="60" height="40" as="geometry" />
        </mxCell>
        <mxCell id="sR3rpR7EwdKjjfOCHWL--13" value="Length" style="ellipse;whiteSpace=wrap;html=1;rounded=0;sketch=0;strokeColor=#E07A5F;fillColor=#F2CC8F;fontSize=15;fontColor=#393C56;" vertex="1" parent="1">
          <mxGeometry x="495" y="140" width="60" height="40" as="geometry" />
        </mxCell>
        <mxCell id="sR3rpR7EwdKjjfOCHWL--14" value="" style="endArrow=none;html=1;strokeColor=#E07A5F;fillColor=#a0522d;fontSize=15;fontColor=#393C56;entryX=0.267;entryY=1;entryDx=0;entryDy=0;entryPerimeter=0;" edge="1" parent="1" target="sR3rpR7EwdKjjfOCHWL--13">
          <mxGeometry width="50" height="50" relative="1" as="geometry">
            <mxPoint x="480" y="210" as="sourcePoint" />
            <mxPoint x="500" y="190" as="targetPoint" />
          </mxGeometry>
        </mxCell>
        <mxCell id="sR3rpR7EwdKjjfOCHWL--15" value="" style="endArrow=none;html=1;strokeColor=#E07A5F;fillColor=#a0522d;fontSize=15;fontColor=#393C56;exitX=0.5;exitY=0;exitDx=0;exitDy=0;entryX=0.5;entryY=1;entryDx=0;entryDy=0;" edge="1" parent="1" source="QT8byqksIuODXXpdPn-B-1">
          <mxGeometry width="50" height="50" relative="1" as="geometry">
            <mxPoint x="400" y="220" as="sourcePoint" />
            <mxPoint x="436.25" y="180" as="targetPoint" />
          </mxGeometry>
        </mxCell>
        <mxCell id="sR3rpR7EwdKjjfOCHWL--16" value="" style="endArrow=none;html=1;strokeColor=#E07A5F;fillColor=#a0522d;fontSize=15;fontColor=#393C56;exitX=1;exitY=1;exitDx=0;exitDy=0;" edge="1" parent="1" source="sR3rpR7EwdKjjfOCHWL--12">
          <mxGeometry width="50" height="50" relative="1" as="geometry">
            <mxPoint x="370" y="170" as="sourcePoint" />
            <mxPoint x="400" y="210" as="targetPoint" />
          </mxGeometry>
        </mxCell>
        <mxCell id="sR3rpR7EwdKjjfOCHWL--18" value="" style="endArrow=none;html=1;strokeColor=#E07A5F;fillColor=#a0522d;fontSize=15;fontColor=#393C56;exitX=1;exitY=0;exitDx=0;exitDy=0;" edge="1" parent="1" source="QT8byqksIuODXXpdPn-B-11">
          <mxGeometry width="50" height="50" relative="1" as="geometry">
            <mxPoint x="70" y="490" as="sourcePoint" />
            <mxPoint x="120" y="440" as="targetPoint" />
          </mxGeometry>
        </mxCell>
        <mxCell id="sR3rpR7EwdKjjfOCHWL--19" value="" style="endArrow=none;html=1;strokeColor=#E07A5F;fillColor=#a0522d;fontSize=15;fontColor=#393C56;entryX=0;entryY=0;entryDx=0;entryDy=0;" edge="1" parent="1" target="QT8byqksIuODXXpdPn-B-9">
          <mxGeometry width="50" height="50" relative="1" as="geometry">
            <mxPoint x="626" y="460" as="sourcePoint" />
            <mxPoint x="635" y="510" as="targetPoint" />
          </mxGeometry>
        </mxCell>
        <mxCell id="sR3rpR7EwdKjjfOCHWL--20" value="" style="endArrow=none;html=1;strokeColor=#E07A5F;fillColor=#a0522d;fontSize=15;fontColor=#393C56;" edge="1" parent="1">
          <mxGeometry width="50" height="50" relative="1" as="geometry">
            <mxPoint x="740" y="320" as="sourcePoint" />
            <mxPoint x="740" y="260" as="targetPoint" />
          </mxGeometry>
        </mxCell>
        <mxCell id="sR3rpR7EwdKjjfOCHWL--21" value="&lt;font style=&quot;font-size: 18px&quot;&gt;Person&lt;/font&gt;" style="rounded=0;whiteSpace=wrap;html=1;sketch=0;strokeColor=#E07A5F;fillColor=#F2CC8F;fontSize=15;fontColor=#393C56;" vertex="1" parent="1">
          <mxGeometry x="340" y="670" width="100" height="40" as="geometry" />
        </mxCell>
        <mxCell id="sR3rpR7EwdKjjfOCHWL--22" value="" style="endArrow=none;html=1;strokeColor=#E07A5F;fillColor=#a0522d;fontSize=15;fontColor=#393C56;entryX=0.25;entryY=1;entryDx=0;entryDy=0;exitX=0.733;exitY=0.05;exitDx=0;exitDy=0;exitPerimeter=0;" edge="1" parent="1" source="sR3rpR7EwdKjjfOCHWL--24" target="sR3rpR7EwdKjjfOCHWL--21">
          <mxGeometry width="50" height="50" relative="1" as="geometry">
            <mxPoint x="304" y="499" as="sourcePoint" />
            <mxPoint x="346.71798822648634" y="493.28201177351366" as="targetPoint" />
          </mxGeometry>
        </mxCell>
        <mxCell id="sR3rpR7EwdKjjfOCHWL--24" value="&lt;u&gt;Name&lt;/u&gt;" style="ellipse;whiteSpace=wrap;html=1;rounded=0;sketch=0;strokeColor=#E07A5F;fillColor=#F2CC8F;fontSize=15;fontColor=#393C56;" vertex="1" parent="1">
          <mxGeometry x="250" y="750" width="90" height="40" as="geometry" />
        </mxCell>
        <mxCell id="sR3rpR7EwdKjjfOCHWL--25" value="" style="endArrow=none;html=1;strokeColor=#E07A5F;fillColor=#a0522d;fontSize=15;fontColor=#393C56;entryX=0.5;entryY=1;entryDx=0;entryDy=0;exitX=0.589;exitY=0.025;exitDx=0;exitDy=0;exitPerimeter=0;" edge="1" parent="1" source="sR3rpR7EwdKjjfOCHWL--26" target="sR3rpR7EwdKjjfOCHWL--21">
          <mxGeometry width="50" height="50" relative="1" as="geometry">
            <mxPoint x="390" y="510" as="sourcePoint" />
            <mxPoint x="385" y="470" as="targetPoint" />
          </mxGeometry>
        </mxCell>
        <mxCell id="sR3rpR7EwdKjjfOCHWL--26" value="&lt;u&gt;Age&lt;/u&gt;" style="ellipse;whiteSpace=wrap;html=1;rounded=0;sketch=0;strokeColor=#E07A5F;fillColor=#F2CC8F;fontSize=15;fontColor=#393C56;" vertex="1" parent="1">
          <mxGeometry x="387.5" y="800" width="90" height="40" as="geometry" />
        </mxCell>
        <mxCell id="sR3rpR7EwdKjjfOCHWL--27" value="" style="endArrow=none;html=1;strokeColor=#E07A5F;fillColor=#a0522d;fontSize=15;fontColor=#393C56;entryX=0.25;entryY=1;entryDx=0;entryDy=0;" edge="1" parent="1" source="sR3rpR7EwdKjjfOCHWL--39">
          <mxGeometry width="50" height="50" relative="1" as="geometry">
            <mxPoint x="471.7237690275947" y="740.0037690275947" as="sourcePoint" />
            <mxPoint x="440" y="708.28" as="targetPoint" />
          </mxGeometry>
        </mxCell>
        <mxCell id="sR3rpR7EwdKjjfOCHWL--31" value="" style="edgeStyle=none;orthogonalLoop=1;jettySize=auto;html=1;endArrow=none;strokeColor=#E07A5F;fillColor=#a0522d;fontSize=15;fontColor=#393C56;" edge="1" parent="1" source="sR3rpR7EwdKjjfOCHWL--30" target="sR3rpR7EwdKjjfOCHWL--26">
          <mxGeometry relative="1" as="geometry" />
        </mxCell>
        <mxCell id="sR3rpR7EwdKjjfOCHWL--30" value="Date of birth" style="ellipse;whiteSpace=wrap;html=1;rounded=0;sketch=0;strokeColor=#E07A5F;fillColor=#F2CC8F;fontSize=15;fontColor=#393C56;dashed=1;" vertex="1" parent="1">
          <mxGeometry x="350" y="910" width="90" height="40" as="geometry" />
        </mxCell>
        <mxCell id="sR3rpR7EwdKjjfOCHWL--32" value="" style="endArrow=none;html=1;strokeColor=#E07A5F;fillColor=#a0522d;fontSize=15;fontColor=#393C56;" edge="1" parent="1" source="sR3rpR7EwdKjjfOCHWL--33" target="sR3rpR7EwdKjjfOCHWL--26">
          <mxGeometry width="50" height="50" relative="1" as="geometry">
            <mxPoint x="474" y="619" as="sourcePoint" />
            <mxPoint x="545" y="580" as="targetPoint" />
          </mxGeometry>
        </mxCell>
        <mxCell id="sR3rpR7EwdKjjfOCHWL--33" value="&lt;u&gt;Date of death&lt;/u&gt;" style="ellipse;whiteSpace=wrap;html=1;rounded=0;sketch=0;strokeColor=#E07A5F;fillColor=#F2CC8F;fontSize=15;fontColor=#393C56;" vertex="1" parent="1">
          <mxGeometry x="485" y="880" width="100" height="40" as="geometry" />
        </mxCell>
        <mxCell id="sR3rpR7EwdKjjfOCHWL--37" value="" style="endArrow=none;html=1;strokeColor=#E07A5F;fillColor=#a0522d;fontSize=15;fontColor=#393C56;" edge="1" parent="1" target="sR3rpR7EwdKjjfOCHWL--24">
          <mxGeometry width="50" height="50" relative="1" as="geometry">
            <mxPoint x="159" y="809" as="sourcePoint" />
            <mxPoint x="230" y="770" as="targetPoint" />
          </mxGeometry>
        </mxCell>
        <mxCell id="sR3rpR7EwdKjjfOCHWL--38" value="First name" style="ellipse;whiteSpace=wrap;html=1;rounded=0;sketch=0;strokeColor=#E07A5F;fillColor=#F2CC8F;fontSize=15;fontColor=#393C56;" vertex="1" parent="1">
          <mxGeometry x="80" y="790" width="90" height="40" as="geometry" />
        </mxCell>
        <mxCell id="sR3rpR7EwdKjjfOCHWL--39" value="Role(s)" style="ellipse;shape=doubleEllipse;whiteSpace=wrap;html=1;rounded=0;sketch=0;strokeColor=#E07A5F;fillColor=#F2CC8F;fontSize=15;fontColor=#393C56;" vertex="1" parent="1">
          <mxGeometry x="510" y="740" width="100" height="50" as="geometry" />
        </mxCell>
        <mxCell id="sR3rpR7EwdKjjfOCHWL--40" value="" style="endArrow=none;html=1;strokeColor=#E07A5F;fillColor=#a0522d;fontSize=15;fontColor=#393C56;exitX=0.667;exitY=0.05;exitDx=0;exitDy=0;exitPerimeter=0;entryX=0.267;entryY=0.95;entryDx=0;entryDy=0;entryPerimeter=0;" edge="1" parent="1" source="sR3rpR7EwdKjjfOCHWL--41" target="sR3rpR7EwdKjjfOCHWL--24">
          <mxGeometry width="50" height="50" relative="1" as="geometry">
            <mxPoint x="214" y="610" as="sourcePoint" />
            <mxPoint x="280" y="800" as="targetPoint" />
          </mxGeometry>
        </mxCell>
        <mxCell id="sR3rpR7EwdKjjfOCHWL--41" value="Middle name" style="ellipse;whiteSpace=wrap;html=1;rounded=0;sketch=0;strokeColor=#E07A5F;fillColor=#F2CC8F;fontSize=15;fontColor=#393C56;" vertex="1" parent="1">
          <mxGeometry x="175" y="840" width="90" height="40" as="geometry" />
        </mxCell>
        <mxCell id="sR3rpR7EwdKjjfOCHWL--42" value="" style="endArrow=none;html=1;strokeColor=#E07A5F;fillColor=#a0522d;fontSize=15;fontColor=#393C56;entryX=0.5;entryY=1;entryDx=0;entryDy=0;exitX=0.5;exitY=0;exitDx=0;exitDy=0;" edge="1" parent="1" source="sR3rpR7EwdKjjfOCHWL--43" target="sR3rpR7EwdKjjfOCHWL--24">
          <mxGeometry width="50" height="50" relative="1" as="geometry">
            <mxPoint x="294" y="669" as="sourcePoint" />
            <mxPoint x="365" y="630" as="targetPoint" />
          </mxGeometry>
        </mxCell>
        <mxCell id="sR3rpR7EwdKjjfOCHWL--43" value="Last name" style="ellipse;whiteSpace=wrap;html=1;rounded=0;sketch=0;strokeColor=#E07A5F;fillColor=#F2CC8F;fontSize=15;fontColor=#393C56;" vertex="1" parent="1">
          <mxGeometry x="280" y="860" width="90" height="40" as="geometry" />
        </mxCell>
        <mxCell id="sR3rpR7EwdKjjfOCHWL--44" value="&lt;span&gt;Category&lt;/span&gt;" style="ellipse;shape=doubleEllipse;whiteSpace=wrap;html=1;rounded=0;sketch=0;strokeColor=#E07A5F;fillColor=#F2CC8F;fontSize=15;fontColor=#393C56;" vertex="1" parent="1">
          <mxGeometry x="397.5" y="135" width="87.5" height="50" as="geometry" />
        </mxCell>
        <mxCell id="sR3rpR7EwdKjjfOCHWL--46" value="Subbed" style="ellipse;whiteSpace=wrap;html=1;rounded=0;fontColor=#393C56;strokeColor=#E07A5F;fillColor=#F2CC8F;fontSize=15;" vertex="1" parent="1">
          <mxGeometry x="140" y="480" width="80" height="40" as="geometry" />
        </mxCell>
        <mxCell id="sR3rpR7EwdKjjfOCHWL--47" value="" style="endArrow=none;html=1;strokeColor=#E07A5F;fillColor=#a0522d;fontSize=15;fontColor=#393C56;entryX=0.6;entryY=1.04;entryDx=0;entryDy=0;entryPerimeter=0;" edge="1" parent="1" source="sR3rpR7EwdKjjfOCHWL--46" target="QT8byqksIuODXXpdPn-B-4">
          <mxGeometry width="50" height="50" relative="1" as="geometry">
            <mxPoint x="155" y="490" as="sourcePoint" />
            <mxPoint x="205" y="440" as="targetPoint" />
          </mxGeometry>
        </mxCell>
      </root>
    </mxGraphModel>
  </diagram>
</mxfile>
